<mxfile host="app.diagrams.net" agent="Mozilla/5.0 (Windows NT 10.0; Win64; x64) AppleWebKit/537.36 (KHTML, like Gecko) Chrome/134.0.0.0 Safari/537.36" version="26.1.3">
  <diagram name="DWH Architecture (ETL Flow)" id="vOIwTkoiM0i-NHCqQ4SQ">
    <mxGraphModel dx="2100" dy="1060" grid="1" gridSize="10" guides="1" tooltips="1" connect="1" arrows="1" fold="1" page="1" pageScale="1" pageWidth="1169" pageHeight="827" math="0" shadow="0">
      <root>
        <mxCell id="0" />
        <mxCell id="1" parent="0" />
        <mxCell id="iGScMYSuftdoKreufJZo-2" value="Источники данных (API / CSV / БД)" style="rounded=1;whiteSpace=wrap;html=1;fillColor=#D5E8D4" vertex="1" parent="1">
          <mxGeometry x="90" y="800" width="180" height="60" as="geometry" />
        </mxCell>
        <mxCell id="iGScMYSuftdoKreufJZo-3" value="Source Layer (PostgreSQL)" style="rounded=1;whiteSpace=wrap;html=1;fillColor=#FFE6CC" vertex="1" parent="1">
          <mxGeometry x="300" y="800" width="180" height="60" as="geometry" />
        </mxCell>
        <mxCell id="iGScMYSuftdoKreufJZo-4" style="endArrow=block;html=1;strokeColor=#000000" edge="1" parent="1" source="iGScMYSuftdoKreufJZo-2" target="iGScMYSuftdoKreufJZo-3">
          <mxGeometry relative="1" as="geometry" />
        </mxCell>
        <mxCell id="iGScMYSuftdoKreufJZo-5" value="dbt run / models" style="swimlane;whiteSpace=wrap;html=1;fillColor=#E1D5E7" vertex="1" parent="1">
          <mxGeometry x="520" y="790" width="140" height="140" as="geometry" />
        </mxCell>
        <mxCell id="iGScMYSuftdoKreufJZo-6" style="endArrow=block;html=1;strokeColor=#000000" edge="1" parent="1" source="iGScMYSuftdoKreufJZo-3" target="iGScMYSuftdoKreufJZo-5">
          <mxGeometry relative="1" as="geometry" />
        </mxCell>
        <mxCell id="iGScMYSuftdoKreufJZo-7" value="STG Layer (Очистка и нормализация)" style="rounded=1;whiteSpace=wrap;html=1;fillColor=#FFF2CC" vertex="1" parent="1">
          <mxGeometry x="700" y="760" width="220" height="60" as="geometry" />
        </mxCell>
        <mxCell id="iGScMYSuftdoKreufJZo-8" value="Data Mart / Презентационный слой" style="rounded=1;whiteSpace=wrap;html=1;fillColor=#DAE8FC" vertex="1" parent="1">
          <mxGeometry x="700" y="850" width="220" height="60" as="geometry" />
        </mxCell>
        <mxCell id="iGScMYSuftdoKreufJZo-9" style="endArrow=block;html=1;strokeColor=#000000" edge="1" parent="1" source="iGScMYSuftdoKreufJZo-5" target="iGScMYSuftdoKreufJZo-7">
          <mxGeometry relative="1" as="geometry" />
        </mxCell>
        <mxCell id="iGScMYSuftdoKreufJZo-10" style="endArrow=block;html=1;strokeColor=#000000" edge="1" parent="1" source="iGScMYSuftdoKreufJZo-7" target="iGScMYSuftdoKreufJZo-8">
          <mxGeometry relative="1" as="geometry" />
        </mxCell>
        <mxCell id="iGScMYSuftdoKreufJZo-11" value="FineBI / BI Инструменты" style="ellipse;whiteSpace=wrap;html=1;fillColor=#F8CECC" vertex="1" parent="1">
          <mxGeometry x="960" y="850" width="100" height="60" as="geometry" />
        </mxCell>
        <mxCell id="iGScMYSuftdoKreufJZo-12" style="endArrow=block;html=1;strokeColor=#000000" edge="1" parent="1" source="iGScMYSuftdoKreufJZo-8" target="iGScMYSuftdoKreufJZo-11">
          <mxGeometry relative="1" as="geometry" />
        </mxCell>
        <mxCell id="iGScMYSuftdoKreufJZo-13" value="Apache Airflow (DAG-запуск dbt)" style="rounded=1;whiteSpace=wrap;html=1;fillColor=#D5E8D4" vertex="1" parent="1">
          <mxGeometry x="350" y="930" width="200" height="60" as="geometry" />
        </mxCell>
        <mxCell id="iGScMYSuftdoKreufJZo-14" value="GitLab CI/CD (Триггеры, пайплайны)" style="rounded=1;whiteSpace=wrap;html=1;fillColor=#E1D5E7" vertex="1" parent="1">
          <mxGeometry x="90" y="930" width="220" height="60" as="geometry" />
        </mxCell>
        <mxCell id="iGScMYSuftdoKreufJZo-15" style="endArrow=block;html=1;strokeColor=#000000" edge="1" parent="1" source="iGScMYSuftdoKreufJZo-14" target="iGScMYSuftdoKreufJZo-13">
          <mxGeometry relative="1" as="geometry" />
        </mxCell>
        <mxCell id="iGScMYSuftdoKreufJZo-16" style="endArrow=block;html=1;strokeColor=#000000" edge="1" parent="1" source="iGScMYSuftdoKreufJZo-13" target="iGScMYSuftdoKreufJZo-5">
          <mxGeometry relative="1" as="geometry" />
        </mxCell>
        <mxCell id="iGScMYSuftdoKreufJZo-17" value="Kubernetes (Запуск контейнеров)" style="rounded=1;whiteSpace=wrap;html=1;fillColor=#FFF2CC" vertex="1" parent="1">
          <mxGeometry x="590" y="940" width="200" height="60" as="geometry" />
        </mxCell>
        <mxCell id="iGScMYSuftdoKreufJZo-18" style="endArrow=block;html=1;strokeColor=#000000" edge="1" parent="1" source="iGScMYSuftdoKreufJZo-13" target="iGScMYSuftdoKreufJZo-17">
          <mxGeometry relative="1" as="geometry" />
        </mxCell>
      </root>
    </mxGraphModel>
  </diagram>
</mxfile>
